<svg xmlns="http://www.w3.org/2000/svg" xmlns:xlink="http://www.w3.org/1999/xlink" width="500" zoomAndPan="magnify" viewBox="0 0 375 374.999991" height="500" preserveAspectRatio="xMidYMid meet" version="1.0"><defs><g/><clipPath id="322da43b2b"><path d="M 46.148438 147 L 122.648438 147 L 122.648438 232.222656 L 46.148438 232.222656 Z M 46.148438 147 " clip-rule="nonzero"/></clipPath></defs><g fill="#000000" fill-opacity="1"><g transform="translate(122.811311, 212.860796)"><g><path d="M 48.003906 0 L 48.003906 -1.328125 L 43.765625 -1.328125 L 43.765625 -23.023438 C 43.765625 -28.523438 42.25 -32.890625 39.214844 -36.304688 C 36.175781 -39.71875 31.433594 -42.058594 26.5 -42.058594 C 22.011719 -42.058594 17.960938 -39.53125 16 -36.175781 L 16 -58.1875 L 4.109375 -58.1875 L 4.109375 -56.859375 L 8.476562 -56.859375 L 8.476562 -1.328125 L 4.109375 -1.328125 L 4.109375 0 L 20.238281 0 L 20.238281 -1.328125 L 16 -1.328125 L 16 -33.332031 C 17.898438 -38.011719 22.074219 -40.730469 26.183594 -40.730469 C 29.789062 -40.730469 32.320312 -38.769531 33.648438 -37 C 36.175781 -33.585938 36.242188 -29.917969 36.242188 -25.171875 L 36.242188 0 Z M 48.003906 0 "/></g></g></g><g fill="#000000" fill-opacity="1"><g transform="translate(173.97743, 212.860796)"><g><path d="M 39.65625 -19.796875 L 39.65625 -22.707031 C 39.65625 -30.296875 37.632812 -34.152344 33.773438 -37.695312 C 30.738281 -40.476562 26.121094 -42.058594 22.074219 -42.058594 C 11.636719 -42.058594 4.425781 -34.21875 4.425781 -23.464844 L 4.425781 -18.40625 C 4.425781 -12.460938 5.753906 -8.539062 9.042969 -4.933594 C 12.144531 -1.582031 16.824219 0.632812 22.453125 0.632812 C 29.851562 0.632812 35.546875 -3.289062 38.960938 -10.753906 L 37.757812 -11.320312 C 34.152344 -3.984375 29.285156 -0.695312 22.644531 -0.695312 C 17.710938 -0.695312 14.609375 -3.035156 13.15625 -6.703125 C 12.082031 -9.425781 11.953125 -12.902344 11.953125 -17.582031 L 11.953125 -19.796875 Z M 32.191406 -21.125 L 11.953125 -21.125 L 11.953125 -26.058594 C 11.953125 -32.128906 12.964844 -35.230469 14.925781 -37.441406 C 16.761719 -39.53125 19.101562 -40.730469 22.074219 -40.730469 C 25.300781 -40.730469 27.957031 -39.277344 29.601562 -37 C 31.558594 -34.34375 32.191406 -31.496094 32.191406 -25.550781 Z M 32.191406 -21.125 "/></g></g></g><g fill="#000000" fill-opacity="1"><g transform="translate(216.795062, 212.860796)"><g><path d="M 28.082031 -32.320312 L 28.082031 -42.4375 L 26.753906 -42.4375 L 26.753906 -37.570312 C 25.234375 -40.414062 22.261719 -42.058594 18.339844 -42.058594 C 11.765625 -42.058594 6.324219 -36.558594 6.324219 -29.726562 C 6.324219 -14.484375 28.460938 -20.050781 28.460938 -9.171875 C 28.460938 -4.363281 24.222656 -0.695312 18.40625 -0.695312 C 11.890625 -0.695312 6.832031 -5.4375 6.324219 -12.082031 L 4.996094 -12.082031 L 4.996094 0.632812 L 6.324219 0.632812 L 6.324219 -6.324219 C 8.726562 -1.898438 13.15625 0.632812 18.339844 0.632812 C 26.121094 0.632812 32.257812 -5.3125 32.257812 -12.710938 C 32.257812 -28.207031 10.625 -22.328125 10.625 -33.203125 C 10.625 -37.378906 14.039062 -40.667969 18.59375 -40.667969 C 23.273438 -40.667969 26.4375 -37.503906 26.816406 -32.320312 Z M 28.082031 -32.320312 "/></g></g></g><g fill="#000000" fill-opacity="1"><g transform="translate(252.212898, 212.860796)"><g><path d="M 28.082031 -32.320312 L 28.082031 -42.4375 L 26.753906 -42.4375 L 26.753906 -37.570312 C 25.234375 -40.414062 22.261719 -42.058594 18.339844 -42.058594 C 11.765625 -42.058594 6.324219 -36.558594 6.324219 -29.726562 C 6.324219 -14.484375 28.460938 -20.050781 28.460938 -9.171875 C 28.460938 -4.363281 24.222656 -0.695312 18.40625 -0.695312 C 11.890625 -0.695312 6.832031 -5.4375 6.324219 -12.082031 L 4.996094 -12.082031 L 4.996094 0.632812 L 6.324219 0.632812 L 6.324219 -6.324219 C 8.726562 -1.898438 13.15625 0.632812 18.339844 0.632812 C 26.121094 0.632812 32.257812 -5.3125 32.257812 -12.710938 C 32.257812 -28.207031 10.625 -22.328125 10.625 -33.203125 C 10.625 -37.378906 14.039062 -40.667969 18.59375 -40.667969 C 23.273438 -40.667969 26.4375 -37.503906 26.816406 -32.320312 Z M 28.082031 -32.320312 "/></g></g></g><g fill="#000000" fill-opacity="1"><g transform="translate(166.061794, 229.571879)"><g><path d="M 2.03125 -4.277344 C 2.03125 -5.082031 2.042969 -5.707031 2.472656 -6.289062 C 2.699219 -6.589844 3.128906 -6.921875 3.738281 -6.921875 C 4.4375 -6.921875 5.148438 -6.460938 5.46875 -5.664062 L 5.46875 -2.613281 C 5.46875 -1.578125 5.296875 -1.054688 4.964844 -0.675781 C 4.652344 -0.324219 4.257812 -0.117188 3.75 -0.117188 C 3.203125 -0.117188 2.75 -0.367188 2.472656 -0.753906 C 2.140625 -1.203125 2.03125 -1.6875 2.03125 -2.699219 Z M 6.75 -9.660156 L 7.492188 -9.660156 L 7.492188 -9.886719 L 5.46875 -9.886719 L 5.46875 -6.148438 C 5.136719 -6.71875 4.449219 -7.148438 3.6875 -7.148438 C 2.847656 -7.148438 2.042969 -6.75 1.527344 -6.167969 C 1.011719 -5.589844 0.753906 -4.847656 0.753906 -3.910156 L 0.753906 -3.160156 C 0.753906 -2.128906 0.976562 -1.460938 1.570312 -0.816406 C 2.117188 -0.226562 2.957031 0.109375 3.75 0.109375 C 5.050781 0.109375 6.222656 -0.71875 6.589844 -1.921875 C 6.71875 -2.332031 6.75 -2.664062 6.75 -3.128906 Z M 6.75 -9.660156 "/></g></g></g><g fill="#000000" fill-opacity="1"><g transform="translate(174.153957, 229.571879)"><g><path d="M 6.695312 -3.878906 C 6.695312 -4.910156 6.46875 -5.578125 5.878906 -6.222656 C 5.332031 -6.8125 4.492188 -7.148438 3.695312 -7.148438 C 2.398438 -7.148438 1.226562 -6.320312 0.859375 -5.117188 C 0.730469 -4.707031 0.699219 -4.375 0.699219 -3.910156 L 0.699219 -3.160156 C 0.699219 -2.128906 0.925781 -1.460938 1.515625 -0.816406 C 2.0625 -0.226562 2.902344 0.109375 3.695312 0.109375 C 4.996094 0.109375 6.167969 -0.71875 6.535156 -1.921875 C 6.664062 -2.332031 6.695312 -2.664062 6.695312 -3.128906 Z M 5.417969 -2.613281 C 5.417969 -1.578125 5.246094 -1.054688 4.910156 -0.675781 C 4.601562 -0.324219 4.203125 -0.117188 3.695312 -0.117188 C 3.148438 -0.117188 2.699219 -0.367188 2.417969 -0.753906 C 2.085938 -1.203125 1.976562 -1.6875 1.976562 -2.699219 L 1.976562 -4.429688 C 1.976562 -5.460938 2.148438 -5.988281 2.484375 -6.363281 C 2.792969 -6.71875 3.191406 -6.921875 3.695312 -6.921875 C 4.246094 -6.921875 4.695312 -6.675781 4.976562 -6.289062 C 5.308594 -5.835938 5.417969 -5.351562 5.417969 -4.34375 Z M 5.417969 -2.613281 "/></g></g></g><g fill="#000000" fill-opacity="1"><g transform="translate(182.041945, 229.571879)"><g><path d="M 3.761719 -0.902344 C 3.730469 -0.527344 3.480469 -0.289062 3.160156 -0.289062 C 2.871094 -0.289062 2.558594 -0.496094 2.558594 -1.011719 L 2.558594 -6.824219 L 3.773438 -6.824219 L 3.773438 -7.050781 L 2.558594 -7.050781 L 2.558594 -9.886719 L 1.277344 -9.886719 L 1.277344 -7.050781 L 0.539062 -7.050781 L 0.539062 -6.824219 L 1.277344 -6.824219 L 1.277344 -1.761719 C 1.277344 -1.300781 1.320312 -0.914062 1.460938 -0.625 C 1.707031 -0.117188 2.148438 0.109375 2.828125 0.109375 C 3.503906 0.109375 3.964844 -0.332031 4 -0.902344 Z M 3.761719 -0.902344 "/></g></g></g><g fill="#000000" fill-opacity="1"><g transform="translate(186.85652, 229.571879)"><g/></g></g><g fill="#000000" fill-opacity="1"><g transform="translate(192.681242, 229.571879)"><g><path d="M 5.40625 -1.515625 C 5.277344 -0.761719 4.675781 -0.117188 3.792969 -0.117188 C 3.0625 -0.117188 2.546875 -0.503906 2.289062 -1.042969 C 2.074219 -1.492188 2.03125 -1.921875 2.03125 -2.964844 L 2.03125 -4.515625 C 2.03125 -5.320312 2.160156 -5.878906 2.429688 -6.234375 C 2.773438 -6.695312 3.160156 -6.921875 3.792969 -6.921875 C 4.546875 -6.921875 5.296875 -6.320312 5.296875 -5.503906 L 5.296875 -5.40625 L 5.523438 -5.40625 L 5.523438 -7.125 L 5.296875 -7.125 L 5.296875 -6.382812 C 4.964844 -6.847656 4.417969 -7.148438 3.664062 -7.148438 C 2.792969 -7.148438 2.011719 -6.738281 1.503906 -6.160156 C 1.011719 -5.597656 0.753906 -4.933594 0.753906 -3.890625 L 0.753906 -3.136719 C 0.753906 -2.140625 0.976562 -1.484375 1.492188 -0.890625 C 2.0625 -0.238281 2.945312 0.117188 3.78125 0.117188 C 4.738281 0.117188 5.492188 -0.527344 5.652344 -1.515625 Z M 5.40625 -1.515625 "/></g></g></g><g fill="#000000" fill-opacity="1"><g transform="translate(199.225957, 229.571879)"><g><path d="M 3.4375 0 L 3.4375 -0.226562 L 2.71875 -0.226562 L 2.71875 -9.886719 L 0.699219 -9.886719 L 0.699219 -9.660156 L 1.441406 -9.660156 L 1.441406 -0.226562 L 0.699219 -0.226562 L 0.699219 0 Z M 3.4375 0 "/></g></g></g><g fill="#000000" fill-opacity="1"><g transform="translate(203.213079, 229.571879)"><g><path d="M 6.695312 -3.878906 C 6.695312 -4.910156 6.46875 -5.578125 5.878906 -6.222656 C 5.332031 -6.8125 4.492188 -7.148438 3.695312 -7.148438 C 2.398438 -7.148438 1.226562 -6.320312 0.859375 -5.117188 C 0.730469 -4.707031 0.699219 -4.375 0.699219 -3.910156 L 0.699219 -3.160156 C 0.699219 -2.128906 0.925781 -1.460938 1.515625 -0.816406 C 2.0625 -0.226562 2.902344 0.109375 3.695312 0.109375 C 4.996094 0.109375 6.167969 -0.71875 6.535156 -1.921875 C 6.664062 -2.332031 6.695312 -2.664062 6.695312 -3.128906 Z M 5.417969 -2.613281 C 5.417969 -1.578125 5.246094 -1.054688 4.910156 -0.675781 C 4.601562 -0.324219 4.203125 -0.117188 3.695312 -0.117188 C 3.148438 -0.117188 2.699219 -0.367188 2.417969 -0.753906 C 2.085938 -1.203125 1.976562 -1.6875 1.976562 -2.699219 L 1.976562 -4.429688 C 1.976562 -5.460938 2.148438 -5.988281 2.484375 -6.363281 C 2.792969 -6.71875 3.191406 -6.921875 3.695312 -6.921875 C 4.246094 -6.921875 4.695312 -6.675781 4.976562 -6.289062 C 5.308594 -5.835938 5.417969 -5.351562 5.417969 -4.34375 Z M 5.417969 -2.613281 "/></g></g></g><g fill="#000000" fill-opacity="1"><g transform="translate(211.101067, 229.571879)"><g><path d="M 8.050781 0 L 8.050781 -0.226562 L 7.328125 -0.226562 L 7.328125 -3.890625 C 7.328125 -4.417969 7.242188 -4.933594 7.09375 -5.320312 C 6.652344 -6.40625 5.554688 -7.148438 4.332031 -7.148438 C 3.105469 -7.148438 2.011719 -6.40625 1.570312 -5.320312 C 1.417969 -4.933594 1.332031 -4.417969 1.332031 -3.890625 L 1.332031 -0.226562 L 0.589844 -0.226562 L 0.589844 0 L 3.332031 0 L 3.332031 -0.226562 L 2.613281 -0.226562 L 2.613281 -4.730469 C 2.613281 -6.105469 3.332031 -6.921875 4.332031 -6.921875 C 5.332031 -6.921875 6.050781 -6.105469 6.050781 -4.730469 L 6.050781 -0.226562 L 5.332031 -0.226562 L 5.332031 0 Z M 8.050781 0 "/></g></g></g><g fill="#000000" fill-opacity="1"><g transform="translate(220.235615, 229.571879)"><g><path d="M 6.738281 -3.363281 L 6.738281 -3.859375 C 6.738281 -5.148438 6.394531 -5.804688 5.738281 -6.40625 C 5.222656 -6.878906 4.4375 -7.148438 3.75 -7.148438 C 1.976562 -7.148438 0.753906 -5.8125 0.753906 -3.988281 L 0.753906 -3.128906 C 0.753906 -2.117188 0.976562 -1.449219 1.535156 -0.839844 C 2.0625 -0.269531 2.859375 0.109375 3.816406 0.109375 C 5.074219 0.109375 6.039062 -0.558594 6.621094 -1.828125 L 6.417969 -1.921875 C 5.804688 -0.675781 4.976562 -0.117188 3.847656 -0.117188 C 3.007812 -0.117188 2.484375 -0.515625 2.234375 -1.140625 C 2.054688 -1.601562 2.03125 -2.191406 2.03125 -2.988281 L 2.03125 -3.363281 Z M 5.46875 -3.589844 L 2.03125 -3.589844 L 2.03125 -4.429688 C 2.03125 -5.460938 2.203125 -5.988281 2.535156 -6.363281 C 2.847656 -6.71875 3.246094 -6.921875 3.75 -6.921875 C 4.300781 -6.921875 4.75 -6.675781 5.03125 -6.289062 C 5.363281 -5.835938 5.46875 -5.351562 5.46875 -4.34375 Z M 5.46875 -3.589844 "/></g></g></g><g clip-path="url(#322da43b2b)"><path fill="#000000" d="M 90.101562 232.195312 L 80.546875 230.28125 C 72.5 228.667969 65.304688 224.777344 59.644531 219.3125 C 54.023438 213.847656 49.894531 206.789062 48.023438 198.816406 C 46.148438 190.867188 46.660156 182.722656 49.277344 175.300781 C 51.894531 167.882812 56.601562 161.207031 63.050781 156.167969 C 69.5 151.128906 77.140625 148.214844 84.996094 147.472656 C 92.828125 146.75 100.875 148.214844 108.132812 151.980469 L 105.8125 156.488281 C 99.40625 153.167969 92.339844 151.894531 85.441406 152.53125 C 78.546875 153.167969 71.839844 155.742188 66.15625 160.164062 C 60.472656 164.585938 56.34375 170.453125 54.046875 176.980469 C 51.746094 183.507812 51.277344 190.675781 52.9375 197.691406 C 54.597656 204.683594 58.21875 210.894531 63.175781 215.699219 C 68.15625 220.503906 74.480469 223.90625 81.523438 225.328125 L 91.082031 227.242188 Z M 103.214844 209.511719 L 84.25 220.4375 L 83.417969 220.90625 L 82.484375 220.714844 C 76.308594 219.480469 70.777344 216.484375 66.433594 212.296875 C 62.089844 208.109375 58.921875 202.6875 57.492188 196.5625 C 56.046875 190.460938 56.449219 184.210938 58.453125 178.511719 C 60.453125 172.816406 64.070312 167.691406 69.03125 163.820312 C 74.90625 159.25 81.460938 157.316406 87.632812 157.125 C 95.167969 156.890625 102.171875 159.3125 106.640625 162.78125 L 109.644531 165.097656 L 106.367188 166.988281 L 105.003906 167.777344 L 121.394531 196.117188 L 122.648438 198.304688 L 120.457031 199.5625 L 110.601562 205.238281 L 108.6875 206.34375 L 107.324219 204.621094 C 105.195312 201.921875 102.960938 199.902344 100.597656 198.5625 C 98.320312 197.242188 95.894531 196.5625 93.359375 196.476562 L 93.316406 196.476562 C 90.402344 196.328125 87.632812 195.4375 85.25 193.925781 C 82.867188 192.417969 80.84375 190.3125 79.460938 187.761719 C 78.078125 185.210938 77.417969 182.382812 77.460938 179.554688 C 77.503906 176.726562 78.269531 173.921875 79.757812 171.410156 L 84.121094 173.964844 C 83.101562 175.707031 82.566406 177.664062 82.527344 179.617188 C 82.484375 181.574219 82.953125 183.550781 83.929688 185.335938 C 84.886719 187.125 86.292969 188.589844 87.953125 189.632812 C 89.613281 190.675781 91.53125 191.3125 93.550781 191.398438 C 96.9375 191.503906 100.128906 192.417969 103.109375 194.117188 C 105.492188 195.5 107.75 197.371094 109.878906 199.753906 L 115.6875 196.414062 L 99.296875 168.074219 L 98.023438 165.882812 L 100.085938 164.691406 C 96.660156 163.035156 92.339844 162.035156 87.71875 162.164062 C 82.546875 162.3125 77.035156 163.949219 72.097656 167.796875 C 67.925781 171.050781 64.878906 175.367188 63.199219 180.171875 C 61.515625 184.976562 61.175781 190.25 62.390625 195.414062 C 63.601562 200.558594 66.261719 205.132812 69.925781 208.660156 C 73.371094 211.976562 77.695312 214.402344 82.503906 215.550781 L 100.617188 205.109375 Z M 103.214844 209.511719 " fill-opacity="1" fill-rule="nonzero"/></g></svg>