<svg xmlns="http://www.w3.org/2000/svg" xmlns:xlink="http://www.w3.org/1999/xlink" width="300" zoomAndPan="magnify" viewBox="0 0 224.87999 112.499997" height="150" preserveAspectRatio="xMidYMid meet" version="1.0"><defs><g/><clipPath id="1816662b47"><path d="M 56 0.894531 L 162.191406 0.894531 L 162.191406 54 L 56 54 Z M 56 0.894531 " clip-rule="nonzero"/></clipPath><clipPath id="4f4eb52ec7"><rect x="0" width="107" y="0" height="54"/></clipPath><clipPath id="e4adf45dbb"><path d="M 1 5.628906 L 49.488281 5.628906 L 49.488281 60.082031 L 1 60.082031 Z M 1 5.628906 " clip-rule="nonzero"/></clipPath><clipPath id="53c9a43296"><rect x="0" width="163" y="0" height="64"/></clipPath></defs><g transform="matrix(1, 0, 0, 1, 11, 23)"><g clip-path="url(#53c9a43296)"><g clip-path="url(#1816662b47)"><g transform="matrix(1, 0, 0, 1, 56, 0)"><g clip-path="url(#4f4eb52ec7)"><g fill="#000000" fill-opacity="1"><g transform="translate(0.853911, 42.009952)"><g><path d="M 30.578125 0 L 30.578125 -0.847656 L 27.878906 -0.847656 L 27.878906 -14.664062 C 27.878906 -18.171875 26.914062 -20.949219 24.980469 -23.125 C 23.046875 -25.300781 20.023438 -26.792969 16.882812 -26.792969 C 14.019531 -26.792969 11.441406 -25.179688 10.191406 -23.046875 L 10.191406 -37.066406 L 2.617188 -37.066406 L 2.617188 -36.21875 L 5.398438 -36.21875 L 5.398438 -0.847656 L 2.617188 -0.847656 L 2.617188 0 L 12.890625 0 L 12.890625 -0.847656 L 10.191406 -0.847656 L 10.191406 -21.230469 C 11.402344 -24.214844 14.0625 -25.945312 16.679688 -25.945312 C 18.976562 -25.945312 20.585938 -24.699219 21.433594 -23.570312 C 23.046875 -21.394531 23.085938 -19.058594 23.085938 -16.035156 L 23.085938 0 Z M 30.578125 0 "/></g></g></g><g fill="#000000" fill-opacity="1"><g transform="translate(33.447167, 42.009952)"><g><path d="M 25.261719 -12.609375 L 25.261719 -14.464844 C 25.261719 -19.296875 23.972656 -21.757812 21.515625 -24.011719 C 19.582031 -25.785156 16.640625 -26.792969 14.0625 -26.792969 C 7.414062 -26.792969 2.820312 -21.796875 2.820312 -14.949219 L 2.820312 -11.722656 C 2.820312 -7.9375 3.667969 -5.4375 5.761719 -3.140625 C 7.734375 -1.007812 10.71875 0.402344 14.300781 0.402344 C 19.015625 0.402344 22.640625 -2.09375 24.816406 -6.847656 L 24.050781 -7.210938 C 21.757812 -2.539062 18.652344 -0.441406 14.421875 -0.441406 C 11.28125 -0.441406 9.308594 -1.933594 8.378906 -4.269531 C 7.695312 -6.003906 7.613281 -8.21875 7.613281 -11.199219 L 7.613281 -12.609375 Z M 20.507812 -13.457031 L 7.613281 -13.457031 L 7.613281 -16.597656 C 7.613281 -20.46875 8.257812 -22.441406 9.507812 -23.851562 C 10.675781 -25.179688 12.167969 -25.945312 14.0625 -25.945312 C 16.117188 -25.945312 17.808594 -25.019531 18.855469 -23.570312 C 20.105469 -21.878906 20.507812 -20.0625 20.507812 -16.277344 Z M 20.507812 -13.457031 "/></g></g></g><g fill="#000000" fill-opacity="1"><g transform="translate(60.722364, 42.009952)"><g><path d="M 17.886719 -20.585938 L 17.886719 -27.035156 L 17.042969 -27.035156 L 17.042969 -23.933594 C 16.074219 -25.746094 14.183594 -26.792969 11.683594 -26.792969 C 7.492188 -26.792969 4.027344 -23.289062 4.027344 -18.9375 C 4.027344 -9.226562 18.128906 -12.773438 18.128906 -5.84375 C 18.128906 -2.78125 15.429688 -0.441406 11.722656 -0.441406 C 7.574219 -0.441406 4.351562 -3.464844 4.027344 -7.695312 L 3.183594 -7.695312 L 3.183594 0.402344 L 4.027344 0.402344 L 4.027344 -4.027344 C 5.558594 -1.207031 8.378906 0.402344 11.683594 0.402344 C 16.640625 0.402344 20.546875 -3.382812 20.546875 -8.097656 C 20.546875 -17.96875 6.769531 -14.222656 6.769531 -21.152344 C 6.769531 -23.8125 8.945312 -25.90625 11.84375 -25.90625 C 14.828125 -25.90625 16.839844 -23.890625 17.082031 -20.585938 Z M 17.886719 -20.585938 "/></g></g></g><g fill="#000000" fill-opacity="1"><g transform="translate(83.283829, 42.009952)"><g><path d="M 17.886719 -20.585938 L 17.886719 -27.035156 L 17.042969 -27.035156 L 17.042969 -23.933594 C 16.074219 -25.746094 14.183594 -26.792969 11.683594 -26.792969 C 7.492188 -26.792969 4.027344 -23.289062 4.027344 -18.9375 C 4.027344 -9.226562 18.128906 -12.773438 18.128906 -5.84375 C 18.128906 -2.78125 15.429688 -0.441406 11.722656 -0.441406 C 7.574219 -0.441406 4.351562 -3.464844 4.027344 -7.695312 L 3.183594 -7.695312 L 3.183594 0.402344 L 4.027344 0.402344 L 4.027344 -4.027344 C 5.558594 -1.207031 8.378906 0.402344 11.683594 0.402344 C 16.640625 0.402344 20.546875 -3.382812 20.546875 -8.097656 C 20.546875 -17.96875 6.769531 -14.222656 6.769531 -21.152344 C 6.769531 -23.8125 8.945312 -25.90625 11.84375 -25.90625 C 14.828125 -25.90625 16.839844 -23.890625 17.082031 -20.585938 Z M 17.886719 -20.585938 "/></g></g></g></g></g></g><g fill="#000000" fill-opacity="1"><g transform="translate(61.097193, 60.762998)"><g><path d="M 1.898438 -4 C 1.898438 -4.753906 1.910156 -5.335938 2.3125 -5.878906 C 2.523438 -6.160156 2.925781 -6.472656 3.496094 -6.472656 C 4.152344 -6.472656 4.8125 -6.039062 5.117188 -5.296875 L 5.117188 -2.441406 C 5.117188 -1.476562 4.953125 -0.984375 4.644531 -0.632812 C 4.351562 -0.300781 3.980469 -0.109375 3.507812 -0.109375 C 2.996094 -0.109375 2.574219 -0.339844 2.3125 -0.703125 C 2 -1.125 1.898438 -1.578125 1.898438 -2.523438 Z M 6.3125 -9.035156 L 7.003906 -9.035156 L 7.003906 -9.246094 L 5.117188 -9.246094 L 5.117188 -5.75 C 4.804688 -6.28125 4.160156 -6.683594 3.445312 -6.683594 C 2.664062 -6.683594 1.910156 -6.3125 1.425781 -5.769531 C 0.945312 -5.226562 0.703125 -4.53125 0.703125 -3.660156 L 0.703125 -2.953125 C 0.703125 -1.988281 0.914062 -1.367188 1.46875 -0.765625 C 1.980469 -0.210938 2.765625 0.101562 3.507812 0.101562 C 4.722656 0.101562 5.820312 -0.671875 6.160156 -1.800781 C 6.28125 -2.179688 6.3125 -2.492188 6.3125 -2.925781 Z M 6.3125 -9.035156 "/></g></g></g><g fill="#000000" fill-opacity="1"><g transform="translate(68.663246, 60.762998)"><g><path d="M 6.261719 -3.628906 C 6.261719 -4.59375 6.050781 -5.214844 5.496094 -5.820312 C 4.984375 -6.371094 4.199219 -6.683594 3.457031 -6.683594 C 2.242188 -6.683594 1.144531 -5.910156 0.804688 -4.785156 C 0.683594 -4.402344 0.652344 -4.089844 0.652344 -3.660156 L 0.652344 -2.953125 C 0.652344 -1.988281 0.863281 -1.367188 1.417969 -0.765625 C 1.929688 -0.210938 2.714844 0.101562 3.457031 0.101562 C 4.671875 0.101562 5.769531 -0.671875 6.109375 -1.800781 C 6.230469 -2.179688 6.261719 -2.492188 6.261719 -2.925781 Z M 5.066406 -2.441406 C 5.066406 -1.476562 4.90625 -0.984375 4.59375 -0.632812 C 4.300781 -0.300781 3.929688 -0.109375 3.457031 -0.109375 C 2.945312 -0.109375 2.523438 -0.339844 2.261719 -0.703125 C 1.949219 -1.125 1.847656 -1.578125 1.847656 -2.523438 L 1.847656 -4.140625 C 1.847656 -5.105469 2.011719 -5.597656 2.320312 -5.949219 C 2.613281 -6.28125 2.984375 -6.472656 3.457031 -6.472656 C 3.96875 -6.472656 4.390625 -6.242188 4.652344 -5.878906 C 4.964844 -5.457031 5.066406 -5.003906 5.066406 -4.058594 Z M 5.066406 -2.441406 "/></g></g></g><g fill="#000000" fill-opacity="1"><g transform="translate(76.038397, 60.762998)"><g><path d="M 3.515625 -0.84375 C 3.488281 -0.492188 3.257812 -0.269531 2.953125 -0.269531 C 2.683594 -0.269531 2.390625 -0.460938 2.390625 -0.945312 L 2.390625 -6.382812 L 3.527344 -6.382812 L 3.527344 -6.59375 L 2.390625 -6.59375 L 2.390625 -9.246094 L 1.195312 -9.246094 L 1.195312 -6.59375 L 0.503906 -6.59375 L 0.503906 -6.382812 L 1.195312 -6.382812 L 1.195312 -1.648438 C 1.195312 -1.214844 1.234375 -0.855469 1.367188 -0.582031 C 1.597656 -0.109375 2.011719 0.101562 2.644531 0.101562 C 3.277344 0.101562 3.707031 -0.3125 3.738281 -0.84375 Z M 3.515625 -0.84375 "/></g></g></g><g fill="#000000" fill-opacity="1"><g transform="translate(80.539941, 60.762998)"><g/></g></g><g fill="#000000" fill-opacity="1"><g transform="translate(85.985958, 60.762998)"><g><path d="M 5.054688 -1.417969 C 4.933594 -0.714844 4.371094 -0.109375 3.546875 -0.109375 C 2.863281 -0.109375 2.382812 -0.472656 2.140625 -0.976562 C 1.941406 -1.398438 1.898438 -1.800781 1.898438 -2.773438 L 1.898438 -4.222656 C 1.898438 -4.976562 2.019531 -5.496094 2.269531 -5.828125 C 2.59375 -6.261719 2.953125 -6.472656 3.546875 -6.472656 C 4.25 -6.472656 4.953125 -5.910156 4.953125 -5.144531 L 4.953125 -5.054688 L 5.164062 -5.054688 L 5.164062 -6.664062 L 4.953125 -6.664062 L 4.953125 -5.96875 C 4.644531 -6.402344 4.128906 -6.683594 3.425781 -6.683594 C 2.613281 -6.683594 1.878906 -6.300781 1.40625 -5.757812 C 0.945312 -5.234375 0.703125 -4.613281 0.703125 -3.636719 L 0.703125 -2.933594 C 0.703125 -2 0.914062 -1.386719 1.398438 -0.835938 C 1.929688 -0.222656 2.753906 0.109375 3.539062 0.109375 C 4.433594 0.109375 5.136719 -0.492188 5.285156 -1.417969 Z M 5.054688 -1.417969 "/></g></g></g><g fill="#000000" fill-opacity="1"><g transform="translate(92.105165, 60.762998)"><g><path d="M 3.214844 0 L 3.214844 -0.210938 L 2.542969 -0.210938 L 2.542969 -9.246094 L 0.652344 -9.246094 L 0.652344 -9.035156 L 1.347656 -9.035156 L 1.347656 -0.210938 L 0.652344 -0.210938 L 0.652344 0 Z M 3.214844 0 "/></g></g></g><g fill="#000000" fill-opacity="1"><g transform="translate(95.833039, 60.762998)"><g><path d="M 6.261719 -3.628906 C 6.261719 -4.59375 6.050781 -5.214844 5.496094 -5.820312 C 4.984375 -6.371094 4.199219 -6.683594 3.457031 -6.683594 C 2.242188 -6.683594 1.144531 -5.910156 0.804688 -4.785156 C 0.683594 -4.402344 0.652344 -4.089844 0.652344 -3.660156 L 0.652344 -2.953125 C 0.652344 -1.988281 0.863281 -1.367188 1.417969 -0.765625 C 1.929688 -0.210938 2.714844 0.101562 3.457031 0.101562 C 4.671875 0.101562 5.769531 -0.671875 6.109375 -1.800781 C 6.230469 -2.179688 6.261719 -2.492188 6.261719 -2.925781 Z M 5.066406 -2.441406 C 5.066406 -1.476562 4.90625 -0.984375 4.59375 -0.632812 C 4.300781 -0.300781 3.929688 -0.109375 3.457031 -0.109375 C 2.945312 -0.109375 2.523438 -0.339844 2.261719 -0.703125 C 1.949219 -1.125 1.847656 -1.578125 1.847656 -2.523438 L 1.847656 -4.140625 C 1.847656 -5.105469 2.011719 -5.597656 2.320312 -5.949219 C 2.613281 -6.28125 2.984375 -6.472656 3.457031 -6.472656 C 3.96875 -6.472656 4.390625 -6.242188 4.652344 -5.878906 C 4.964844 -5.457031 5.066406 -5.003906 5.066406 -4.058594 Z M 5.066406 -2.441406 "/></g></g></g><g fill="#000000" fill-opacity="1"><g transform="translate(103.20819, 60.762998)"><g><path d="M 7.527344 0 L 7.527344 -0.210938 L 6.855469 -0.210938 L 6.855469 -3.636719 C 6.855469 -4.128906 6.773438 -4.613281 6.632812 -4.976562 C 6.222656 -5.988281 5.195312 -6.683594 4.050781 -6.683594 C 2.90625 -6.683594 1.878906 -5.988281 1.46875 -4.976562 C 1.328125 -4.613281 1.246094 -4.128906 1.246094 -3.636719 L 1.246094 -0.210938 L 0.554688 -0.210938 L 0.554688 0 L 3.117188 0 L 3.117188 -0.210938 L 2.441406 -0.210938 L 2.441406 -4.421875 C 2.441406 -5.707031 3.117188 -6.472656 4.050781 -6.472656 C 4.984375 -6.472656 5.660156 -5.707031 5.660156 -4.421875 L 5.660156 -0.210938 L 4.984375 -0.210938 L 4.984375 0 Z M 7.527344 0 "/></g></g></g><g fill="#000000" fill-opacity="1"><g transform="translate(111.748861, 60.762998)"><g><path d="M 6.300781 -3.144531 L 6.300781 -3.609375 C 6.300781 -4.8125 5.980469 -5.425781 5.367188 -5.988281 C 4.882812 -6.433594 4.152344 -6.683594 3.507812 -6.683594 C 1.847656 -6.683594 0.703125 -5.4375 0.703125 -3.730469 L 0.703125 -2.925781 C 0.703125 -1.980469 0.914062 -1.355469 1.4375 -0.785156 C 1.929688 -0.25 2.671875 0.101562 3.566406 0.101562 C 4.742188 0.101562 5.648438 -0.523438 6.191406 -1.707031 L 6 -1.800781 C 5.425781 -0.632812 4.652344 -0.109375 3.597656 -0.109375 C 2.8125 -0.109375 2.320312 -0.480469 2.089844 -1.066406 C 1.917969 -1.496094 1.898438 -2.050781 1.898438 -2.792969 L 1.898438 -3.144531 Z M 5.117188 -3.355469 L 1.898438 -3.355469 L 1.898438 -4.140625 C 1.898438 -5.105469 2.058594 -5.597656 2.371094 -5.949219 C 2.664062 -6.28125 3.035156 -6.472656 3.507812 -6.472656 C 4.019531 -6.472656 4.441406 -6.242188 4.703125 -5.878906 C 5.015625 -5.457031 5.117188 -5.003906 5.117188 -4.058594 Z M 5.117188 -3.355469 "/></g></g></g><g clip-path="url(#e4adf45dbb)"><path fill="#000000" d="M 28.707031 60.066406 L 22.601562 58.847656 C 17.464844 57.820312 12.871094 55.339844 9.253906 51.859375 C 5.667969 48.378906 3.03125 43.882812 1.835938 38.804688 C 0.636719 33.742188 0.964844 28.554688 2.636719 23.828125 C 4.308594 19.105469 7.3125 14.851562 11.429688 11.640625 C 15.546875 8.433594 20.429688 6.578125 25.441406 6.105469 C 30.445312 5.644531 35.582031 6.578125 40.21875 8.976562 L 38.734375 11.84375 C 34.644531 9.734375 30.132812 8.921875 25.730469 9.328125 C 21.324219 9.734375 17.042969 11.371094 13.414062 14.1875 C 9.785156 17.003906 7.148438 20.742188 5.679688 24.898438 C 4.210938 29.058594 3.914062 33.621094 4.972656 38.089844 C 6.035156 42.542969 8.34375 46.5 11.511719 49.558594 C 14.691406 52.617188 18.730469 54.785156 23.226562 55.691406 L 29.332031 56.910156 Z M 37.078125 45.617188 L 24.96875 52.578125 L 24.4375 52.875 L 23.839844 52.753906 C 19.898438 51.96875 16.363281 50.058594 13.589844 47.390625 C 10.816406 44.722656 8.792969 41.269531 7.882812 37.371094 C 6.957031 33.484375 7.214844 29.503906 8.492188 25.875 C 9.773438 22.246094 12.082031 18.980469 15.25 16.515625 C 19 13.605469 23.1875 12.375 27.128906 12.25 C 31.941406 12.101562 36.410156 13.648438 39.265625 15.855469 L 41.183594 17.328125 L 39.089844 18.535156 L 38.21875 19.035156 L 48.683594 37.085938 L 49.488281 38.480469 L 48.085938 39.28125 L 41.792969 42.894531 L 40.570312 43.601562 L 39.703125 42.503906 C 38.34375 40.785156 36.914062 39.496094 35.40625 38.644531 C 33.953125 37.804688 32.402344 37.371094 30.785156 37.316406 L 30.757812 37.316406 C 28.894531 37.222656 27.128906 36.652344 25.605469 35.691406 C 24.085938 34.730469 22.792969 33.390625 21.910156 31.765625 C 21.027344 30.140625 20.605469 28.339844 20.632812 26.539062 C 20.660156 24.738281 21.148438 22.949219 22.101562 21.351562 L 24.886719 22.976562 C 24.234375 24.085938 23.894531 25.332031 23.867188 26.578125 C 23.839844 27.824219 24.136719 29.082031 24.761719 30.222656 C 25.375 31.359375 26.273438 32.292969 27.332031 32.957031 C 28.394531 33.621094 29.617188 34.027344 30.90625 34.082031 C 33.066406 34.148438 35.105469 34.730469 37.011719 35.8125 C 38.53125 36.695312 39.972656 37.886719 41.332031 39.402344 L 45.042969 37.277344 L 34.578125 19.226562 L 33.761719 17.832031 L 35.078125 17.074219 C 32.890625 16.015625 30.132812 15.378906 27.183594 15.460938 C 23.878906 15.554688 20.359375 16.597656 17.207031 19.050781 C 14.542969 21.121094 12.597656 23.871094 11.523438 26.929688 C 10.453125 29.992188 10.234375 33.347656 11.007812 36.640625 C 11.785156 39.917969 13.480469 42.828125 15.820312 45.078125 C 18.023438 47.1875 20.78125 48.734375 23.851562 49.464844 L 35.417969 42.816406 Z M 37.078125 45.617188 " fill-opacity="1" fill-rule="nonzero"/></g></g></g></svg>